<?xml version="1.0" encoding="utf-8"?>
<!-- Generator: Adobe Illustrator 19.0.0, SVG Export Plug-In . SVG Version: 6.00 Build 0)  -->
<svg version="1.1" id="Layer_1" xmlns="http://www.w3.org/2000/svg" xmlns:xlink="http://www.w3.org/1999/xlink" x="0px" y="0px"
	 viewBox="-1100 1275.8 598.4 275" style="enable-background:new -1100 1275.8 598.4 275;" xml:space="preserve">
<style type="text/css">
	.st0{fill:#FFFFFF;}
	.st1{fill:#5C5C5B;}
</style>
<g>
	<path class="st0" d="M-655.3,1380.9l62.6,142.3c6.8,19.1-12.9,17.3-12.9,17.3v9.9h71.2v-9.6c0,0-16.7,1.8-18.2-13.3l-91.1-213.5
		l-68.8,161.7l2.6,8.9l7.8,0.9L-655.3,1380.9z"/>
	<path class="st0" d="M-914.5,1474.8l-68.5-161.3l-91.1,213.5c-1.5,15.1-18.2,13.3-18.2,13.3v9.6h71.2v-9.9c0,0-19.7,1.8-12.9-17.3
		l62.6-142.3l46.2,103l20.8,46.2l6.9-20.8L-914.5,1474.8z"/>
	<path class="st1" d="M-797.6,1275.8"/>
	<path class="st0" d="M-926.2,1539v11h53.5v-11c0,0-15.2,0-15.8-9.2l76.6-177.1l73.8,169.4c0,0,5.1,16.4-16.4,17v11.6h83.9v-12.3
		c0,0-14.6,1.5-20.5-11.3l-106.5-251.3L-903.9,1523c0,0-4.8,15.5-22.9,15.5"/>
	<path class="st0" d="M-881.2,1424.5c0,0-10.2,10.5,2.7,15.1c0,0,118.7-4.5,164.6,0.5c0,0,8.7-5,2.3-15.5
		C-711.8,1424.5-819.8,1417.8-881.2,1424.5z"/>
	<path class="st0" d="M-895.4,1454.3c0,0-6.6,8.4,0,15.1c0,0,136.3-2.4,194.4,0c0,0,10.2-9.8-1.4-15.5
		C-702.3,1453.9-866.8,1451.6-895.4,1454.3z"/>
	<path class="st0" d="M-685.9,1486.3c0,0,3.3,13.1-4.2,14.5c0,0-156.9-2.4-216.4,0.5c0,0-9.3-0.5-3.8-14
		C-910.3,1487.2-785.7,1476.9-685.9,1486.3z"/>
	<path class="st0" d="M-730.3,1435.5c0,0,144.7-4.7,228.7,9.3c0,0-200.1,7.7-221.8,6.3L-730.3,1435.5z"/>
	<path class="st0" d="M-716.3,1467.9c0,0,138.7-4.7,196.8,10.4c0,0-148.5-2.4-191.8,1.7L-716.3,1467.9z"/>
	<path class="st0" d="M-524.6,1505.5c0,0-53-11.7-178.4-8l4.1,9.9C-699,1507.5-572.7,1506.3-524.6,1505.5z"/>
	<path class="st0" d="M-867.8,1437.2c0,0-150-6.3-226.2,8.4c0,0,180.7,5.6,221,4.4L-867.8,1437.2z"/>
	<path class="st0" d="M-880.6,1468.7c0,0-129.6-9.9-215.8,9.9c0,0,172.7-0.5,211.4,0.8L-880.6,1468.7z"/>
	<path class="st0" d="M-893.7,1498.2c0,0-140.5-7.2-206.3,6.8c0,0,174.4,0.6,201,3.5L-893.7,1498.2z"/>
	<path d="M-715.1,1439.9c0,0-3,7.1-9.9,6.9l-3.8-8.4L-715.1,1439.9z"/>
	<path d="M-702,1500.7l12.5-0.2c0,0-1.1,6.6-10.2,7.2L-702,1500.7z"/>
	<path d="M-715.9,1468.8l14.9,0.6c0,0-4.1,7.7-10.8,8.9L-715.9,1468.8z"/>
	<path d="M-907.1,1501.2c0,0,4.8,6.2,9.5,7.2l3.6-7.7L-907.1,1501.2z"/>
	<path d="M-895.4,1469.4h14.6l-4.1,9C-884.8,1478.4-894.8,1473.9-895.4,1469.4z"/>
	<path d="M-880.2,1438.5c0,0,3.3,7.2,8.9,7.8l2.9-7.1L-880.2,1438.5z"/>
	<path class="st0" d="M-537.7,1514.6c3.9,0,7.1,3.2,7.1,7.2c0,4.1-3.3,7.2-7.1,7.2c-3.9,0-7.1-3.2-7.1-7.2
		C-544.8,1517.7-541.5,1514.6-537.7,1514.6L-537.7,1514.6z M-537.7,1530.4c4.7,0,8.4-3.8,8.4-8.6c0-4.8-3.8-8.6-8.4-8.6
		c-4.7,0-8.4,3.8-8.4,8.6C-546.2,1526.6-542.4,1530.4-537.7,1530.4L-537.7,1530.4z M-536.2,1522.3c1.4,0,2.6-0.8,2.6-2.7
		s-1.5-2.6-3.3-2.6h-3.9v9.6h1.4v-4.5h1.8l2.4,4.5h1.5L-536.2,1522.3L-536.2,1522.3z M-537.3,1518.5c1.2,0,2.1,0.2,2.1,1.4
		c0,1.4-1.8,1.1-3,1.1h-1.5v-2.4H-537.3L-537.3,1518.5z"/>
	<polyline class="st1" points="-1001.8,1448.5 -1040.1,1447.1 -1043.2,1454.5 -1004.4,1454.5 -1002,1448.8 	"/>
	<path class="st1" d="M-1017.6,1484.9c-15.2,0.3-39.6,2.4-39.6,2.4l3.5-8.7l38.7-0.2L-1017.6,1484.9z"/>
	<path class="st1" d="M-1064.6,1505.1c0,0,32.4,0.2,37.6,0.2l-3.5,8.4c0,0-36.3-0.3-38.2,0L-1064.6,1505.1z"/>
	<polygon class="st1" points="-868.6,1439.3 -849.3,1439 -852.3,1445.9 -871.6,1447.1 	"/>
	<polygon class="st1" points="-880.6,1468.7 -861.9,1469 -865.4,1477.2 -884.8,1478.4 	"/>
	<polygon class="st1" points="-875.8,1500.3 -894.6,1500.7 -897.8,1508.6 -879.1,1508.9 	"/>
	<path class="st1" d="M-774.7,1437.8l3.5,7.5c0,0,35.2-1.2,45.8,1.2l-3.5-7.5C-729,1439-764.8,1436.7-774.7,1437.8z"/>
	<polygon class="st1" points="-761.2,1468.4 -715.9,1468.8 -712.6,1475.9 -758.8,1475.4 	"/>
	<polygon class="st1" points="-747.8,1500.4 -701.9,1500.7 -699.3,1508.4 -743.9,1508.4 	"/>
	<path class="st1" d="M-624.9,1449.4c0,0,36.3-1.4,38.5-1.4l2.9,8.1c0,0-32.5-1.7-38.7-0.2L-624.9,1449.4z"/>
	<polygon class="st1" points="-600.1,1506.3 -561.8,1506.1 -557.9,1515.2 -596,1515.2 	"/>
	<polygon class="st1" points="-612.6,1477.7 -573.9,1477.7 -570.9,1485.8 -609.1,1486.6 	"/>
</g>
</svg>
